HIERARCHY
ROOT RootJoint
{
    OFFSET   0.000000   0.000000   0.000000
    CHANNELS 6 Xposition Yposition Zposition Xrotation Yrotation Zrotation
    JOINT pelvis_lowerback
    {
        OFFSET   0.000000   0.093605   0.000000
        CHANNELS 3 Xrotation Yrotation Zrotation
        JOINT lowerback_torso
        {
            OFFSET   0.000000   0.100000   0.000000
            CHANNELS 3 Xrotation Yrotation Zrotation
            JOINT torso_head
            {
                OFFSET   0.000000   0.282350   0.000000
                CHANNELS 3 Xrotation Yrotation Zrotation
                End Site
                {
                    OFFSET   0.000000   0.192650   0.000000
                }
            }
            JOINT rTorso_Clavicle
            {
                OFFSET  -0.001000   0.157500   0.000000
                CHANNELS 3 Xrotation Yrotation Zrotation
                JOINT rShoulder
                {
                    OFFSET  -0.117647   0.000000   0.000000
                    CHANNELS 3 Xrotation Yrotation Zrotation
                    JOINT rElbow
                    {
                        OFFSET  -0.245000   0.000000   0.000000
                        CHANNELS 3 Xrotation Yrotation Zrotation
                        JOINT rWrist
                        {
                            OFFSET  -0.240000   0.000000   0.000000
                            CHANNELS 3 Xrotation Yrotation Zrotation
                            End Site
                            {
                                OFFSET  -0.116353  -0.002500   0.000000
                            }
                        }
                    }
                }
            }
            JOINT lTorso_Clavicle
            {
                OFFSET   0.001000   0.157500   0.000000
                CHANNELS 3 Xrotation Yrotation Zrotation
                JOINT lShoulder
                {
                    OFFSET   0.117647   0.000000   0.000000
                    CHANNELS 3 Xrotation Yrotation Zrotation
                    JOINT lElbow
                    {
                        OFFSET   0.245000   0.000000   0.000000
                        CHANNELS 3 Xrotation Yrotation Zrotation
                        JOINT lWrist
                        {
                            OFFSET   0.240000   0.000000   0.000000
                            CHANNELS 3 Xrotation Yrotation Zrotation
                            End Site
                            {
                                OFFSET   0.116353  -0.002500   0.000000
                            }
                        }
                    }
                }
            }
        }
    }
    JOINT rHip
    {
        OFFSET  -0.100000  -0.051395   0.000000
        CHANNELS 3 Xrotation Yrotation Zrotation
        JOINT rKnee
        {
            OFFSET   0.000000  -0.410000   0.000000
            CHANNELS 3 Xrotation Yrotation Zrotation
            JOINT rAnkle
            {
                OFFSET   0.000000  -0.390000   0.000000
                CHANNELS 3 Xrotation Yrotation Zrotation
                JOINT rToeJoint
                {
                    OFFSET   0.000000  -0.050000   0.130000
                    CHANNELS 3 Xrotation Yrotation Zrotation
                    End Site
                    {
                        OFFSET  -0.010000   0.002000   0.060000
                    }
                }
            }
        }
    }
    JOINT lHip
    {
        OFFSET   0.100000  -0.051395   0.000000
        CHANNELS 3 Xrotation Yrotation Zrotation
        JOINT lKnee
        {
            OFFSET   0.000000  -0.410000   0.000000
            CHANNELS 3 Xrotation Yrotation Zrotation
            JOINT lAnkle
            {
                OFFSET   0.000000  -0.390000   0.000000
                CHANNELS 3 Xrotation Yrotation Zrotation
                JOINT lToeJoint
                {
                    OFFSET   0.000000  -0.050000   0.130000
                    CHANNELS 3 Xrotation Yrotation Zrotation
                    End Site
                    {
                        OFFSET   0.010000   0.002000   0.060000
                    }
                }
            }
        }
    }
}
MOTION
Frames: 12
Frame Time:   0.008333
 -2.376719   0.925631   3.975860   0.000000   0.000000   0.000000   0.000000   0.000000   0.000000   0.000000   0.000000   0.000000   0.000000   0.000000   0.000000   0.000000   0.000000   0.000000   0.000000   0.000000   0.000000   0.000000   0.000000   0.000000   0.000000   0.000000   0.000000   0.000000   0.000000   0.000000   0.000000   0.000000   0.000000   0.000000   0.000000   0.000000   0.000000   0.000000   0.000000   0.000000   0.000000   0.000000   0.000000   0.000000   0.000000   0.000000   0.000000   0.000000   0.000000   0.000000   0.000000   0.000000   0.000000   0.000000   0.000000   0.000000   0.000000   0.000000   0.000000   0.000000   0.000000   0.000000   0.000000
 -2.376796   0.926130   3.974985  -0.868287  -0.178302  -0.010931   1.277284   0.270035   0.010725   0.003759  -0.415365  -0.056558  -0.279758  -0.198892   0.275250  -0.174235  -0.185596   0.347201  -0.155749   0.405076   1.891449   0.054682   2.864559  -0.003332   0.466536  -1.538572  -3.301433   0.019492   0.398341  -0.446281   1.253705   0.175931  -1.927846   0.010877  -0.512355   0.007573   0.448979  -0.052972   3.366461   0.382038   0.307553   0.072967   2.624083  -0.001367   0.002996  -3.023168   0.131798  -0.133471   0.024281   0.000015   0.000055  -0.495968  -0.150279   0.016165   3.393308  -0.000513  -0.009713  -1.733535   0.075949   0.003548  -0.502668   0.000023   0.001108
 -2.376965   0.926874   3.974383  -1.884047  -0.590280  -0.020328   2.519681   0.657982  -0.003569   0.156847  -0.688668  -0.121243  -0.490618  -0.406978   0.552631  -0.340616  -0.181778   1.370389  -0.336289   0.981864   4.204360   0.124487   5.686824  -0.005210   0.922911  -2.106515  -5.972991   0.060438   0.783364  -1.608028   2.495292   0.314197  -4.442435   0.024635  -0.996048   0.013097   0.954589  -0.177667   6.094885   1.137193   0.620707   0.186441   5.491090  -0.003981   0.000200  -5.845413   0.267127  -0.244549  -0.067510   0.000010   0.000017  -1.082654  -0.296296   0.024154   6.949014  -0.002723  -0.024945  -3.329273   0.146298   0.011324  -0.949107   0.000082   0.002786
 -2.377186   0.927442   3.974022  -2.867815  -1.160762  -0.026472   3.645455   1.132226  -0.048903   0.302153  -0.822037  -0.198682  -0.680353  -0.604737   0.813865  -0.497683  -0.049109   2.812271  -0.539510   1.618111   6.729416   0.190601   8.367837  -0.004536   1.369964  -2.269301  -7.816648   0.105844   1.138753  -3.200264   3.721523   0.390024  -7.340795   0.038016  -1.449594   0.016639   1.454438  -0.329358   7.981304   2.122755   0.915642   0.309614   8.303838  -0.007598  -0.005938  -8.472459   0.398398  -0.338410  -0.138583   0.000038   0.000105  -1.811297  -0.436061   0.017774  10.276699  -0.006615  -0.040176  -4.814983   0.210912   0.021494  -1.348608   0.000178   0.004482
 -2.377436   0.927543   3.973845  -3.786315  -1.833411  -0.033562   4.664647   1.666984  -0.123505   0.412330  -0.846758  -0.289531  -0.863858  -0.790461   1.058710  -0.644997   0.161139   4.495914  -0.760803   2.268021   9.340604   0.244832  10.894273  -0.002624   1.803651  -2.249098  -9.016137   0.153311   1.475929  -5.041418   4.924958   0.401222 -10.471642   0.049439  -1.873588   0.018663   1.941793  -0.496316   9.208744   3.278875   1.194099   0.427693  11.012855  -0.011871  -0.012942 -10.921380   0.524542  -0.418574  -0.200996   0.000077   0.000230  -2.684408  -0.568664   0.005028  13.333505  -0.011568  -0.052849  -6.203899   0.270618   0.033011  -1.725404   0.000313   0.006040
 -2.377730   0.926946   3.973804  -4.638295  -2.566686  -0.042839   5.594107   2.243897  -0.230151   0.492705  -0.785733  -0.404976  -1.041790  -0.964813   1.291573  -0.782205   0.413264   6.305326  -0.995175   2.904871  11.957296   0.284298  13.265084  -0.000627   2.219807  -2.143615  -9.757611   0.204726   1.809529  -7.048375   6.048271   0.351557 -13.605951   0.057989  -2.267728   0.019392   2.413821  -0.667496   9.904173   4.570117   1.458717   0.534109  13.611205  -0.016486  -0.019346 -13.204997   0.645214  -0.487671  -0.257963   0.000121   0.000356  -3.685567  -0.694190  -0.004200  16.131559  -0.016934  -0.062049  -7.503106   0.326056   0.045125  -2.082393   0.000486   0.007335
 -2.378067   0.925487   3.973858  -5.428286  -3.330077  -0.056494   6.448274   2.848660  -0.368100   0.552540  -0.657365  -0.543341  -1.212668  -1.128315   1.510116  -0.910367   0.686608   8.154385  -1.238637   3.515483  14.521773   0.309194  15.485309   0.000784   2.616944  -1.998379 -10.194160   0.261971   2.144030  -9.117232   7.093950   0.252912 -16.671208   0.063618  -2.633069   0.019218   2.866257  -0.833357  10.247670   5.967591   1.711305   0.626968  16.098966  -0.021093  -0.024421 -15.334557   0.760333  -0.547621  -0.309729   0.000166   0.000460  -4.794225  -0.813679  -0.002132  18.690820  -0.022093  -0.067734  -8.718302   0.377759   0.057405  -2.418842   0.000681   0.008303
 -2.378251   0.922467   3.972913  -5.553814  -3.867852   0.018869   6.889985   3.324492  -0.580317   0.416927  -0.524778  -0.638263  -1.522996  -1.237811   1.581848  -0.949740   0.847685   9.401822  -1.107677   4.143087  16.715343   0.322884  17.987179  -0.010201   2.981654  -1.943797  -9.810294   0.410448   2.448461 -10.440661   7.901019   0.037441 -19.724693   0.064373  -2.965695   0.018259   3.231478  -1.187775   9.540940   6.956182   1.764808   0.620250  17.361696  -0.020557  -0.023700 -17.373288   0.823274  -0.689054  -0.172186   0.000105  -0.000130  -6.875605  -0.807673  -0.037289  21.273745  -0.025340  -0.064412 -10.440335   0.345325  -0.114255  -2.556750   0.000449   0.007314
 -2.378369   0.918149   3.971471  -5.595968  -4.412690   0.111677   7.390911   3.816880  -0.809215   0.284047  -0.362452  -0.755653  -1.831411  -1.336429   1.641047  -1.018008   1.047816  10.309138  -1.022723   4.781443  18.583274   0.317827  20.352866  -0.021482   3.379249  -1.725437  -9.612220   0.541857   2.706537 -11.460312   8.638225  -0.204434 -22.432263   0.062455  -3.278263   0.017317   3.575979  -1.557808   8.917867   7.869377   1.819099   0.569507  18.354885  -0.019227  -0.022269 -19.288819   0.885649  -0.819895  -0.073171   0.000078  -0.000467  -9.061155  -0.780722  -0.063664  23.586021  -0.027372  -0.060171 -12.056834   0.321714  -0.276350  -2.724800   0.000262   0.006647
 -2.378466   0.912680   3.969784  -5.620192  -4.954195   0.205920   7.934799   4.309277  -1.047943   0.198223  -0.176490  -0.888718  -2.109949  -1.427771   1.695589  -1.118861   1.278529  10.976543  -0.982693   5.418238  20.196744   0.302246  22.579579  -0.031787   3.787780  -1.422008  -9.688146   0.660463   2.934256 -12.265861   9.313251  -0.458249 -24.850869   0.058967  -3.569788   0.016317   3.902944  -1.908226   8.526703   8.746201   1.870729   0.500818  19.246078  -0.017828  -0.020759 -21.078653   0.947470  -0.940768   0.014176   0.000062  -0.000693 -11.241545  -0.756137  -0.068471  25.676316  -0.028519  -0.055706 -13.568157   0.304453  -0.428560  -2.882172   0.000141   0.006058
 -2.378560   0.906166   3.968010  -5.638432  -5.477020   0.298455   8.497074   4.791957  -1.294880   0.152519   0.023616  -1.032404  -2.358454  -1.512712   1.745821  -1.243698   1.520398  11.471630  -0.978469   6.038087  21.609769   0.281296  24.670593  -0.040377   4.198823  -1.072945  -9.976781   0.771707   3.145368 -12.913053   9.934197  -0.711317 -27.029621   0.054610  -3.839231   0.015197   4.212237  -2.225236   8.325571   9.599077   1.918414   0.425015  20.072383  -0.016484  -0.019211 -22.749207   1.008368  -1.052561   0.095184   0.000049  -0.000839 -13.379603  -0.736649  -0.053704  27.580148  -0.028866  -0.051063 -14.980273   0.292285  -0.571444  -3.027207   0.000064   0.005509
 -2.378654   0.898690   3.966249  -5.653643  -5.971120   0.388644   9.059956   5.259377  -1.547537   0.135583   0.230540  -1.182932  -2.581475  -1.591766   1.791646  -1.383280   1.759084  11.842303  -1.000954   6.629783  22.862304   0.258141  26.629972  -0.046991   4.606453  -0.706544 -10.413716   0.880289   3.348762 -13.441479  10.508491  -0.955193 -29.006304   0.049851  -4.086180   0.013957   4.503730  -2.500909   8.259897  10.431044   1.962078   0.347977  20.846171  -0.015213  -0.017625 -24.308032   1.068087  -1.156037   0.170835   0.000036  -0.000920 -15.454561  -0.721952  -0.025377  29.322497  -0.028494  -0.046334 -16.299325   0.284283  -0.705566  -3.160559   0.000014   0.004987
